<svg width="33" height="32" viewBox="0 0 33 32" fill="none" xmlns="http://www.w3.org/2000/svg">
<path d="M8.5 22H24.5C25.05 22 25.5 21.55 25.5 21C25.5 20.45 25.05 20 24.5 20H8.5C7.95 20 7.5 20.45 7.5 21C7.5 21.55 7.95 22 8.5 22ZM8.5 17H24.5C25.05 17 25.5 16.55 25.5 16C25.5 15.45 25.05 15 24.5 15H8.5C7.95 15 7.5 15.45 7.5 16C7.5 16.55 7.95 17 8.5 17ZM7.5 11C7.5 11.55 7.95 12 8.5 12H24.5C25.05 12 25.5 11.55 25.5 11C25.5 10.45 25.05 10 24.5 10H8.5C7.95 10 7.5 10.45 7.5 11Z" fill="#9799A3"/>
</svg>
