<svg width="32" height="32" viewBox="0 0 32 32" fill="none" xmlns="http://www.w3.org/2000/svg">
<g clip-path="url(#clip0)">
<path d="M6.55492 10.7988L7.83168 23.6195H23.1667L24.1953 11.047L15.4992 15.9158L6.55492 10.7988Z" fill="white"/>
<path d="M6.98938 8.38281L15.5005 16.378L24.0117 8.38281H15.5005H6.98938Z" fill="white"/>
<path d="M23.1675 12.0733V23.6172H24.5571C25.0777 23.6172 25.5 23.1949 25.5 22.6743V10.373L23.9766 10.4146L23.1675 12.0733Z" fill="#F14336"/>
<path d="M5.49953 10.373V22.6743C5.49953 23.1948 5.92187 23.6172 6.44297 23.6172H7.83203V12.0732L7.06281 10.2559L5.49953 10.373Z" fill="#D32E2A"/>
<path d="M5.5 9.32574V10.3744L7.8325 12.0746L15.5 17.6632L23.1675 12.0746L25.5 10.3744V9.32574C25.5 8.80516 25.0777 8.38281 24.5571 8.38281H24.0112L15.5 14.5863L6.98883 8.38281H6.44344C5.92234 8.38281 5.5 8.80512 5.5 9.32574Z" fill="#F14336"/>
<path d="M23.1675 12.0733L25.5 11.7116V10.373L23.1675 12.0733Z" fill="#D32E2A"/>
</g>
<defs>
<clipPath id="clip0">
<rect width="20" height="20" fill="white" transform="matrix(-1 0 0 1 25.5 6)"/>
</clipPath>
</defs>
</svg>
