<svg width="32" height="32" viewBox="0 0 32 32" fill="none" xmlns="http://www.w3.org/2000/svg">
<path d="M25.8438 10.0007H17.3125V6.66754C17.3125 6.46888 17.2259 6.28089 17.0749 6.15422C16.9253 6.02756 16.7245 5.9729 16.5355 6.0129L6.0355 8.01281C5.72444 8.07147 5.5 8.34613 5.5 8.66745V23.3335C5.5 23.6534 5.72444 23.9294 6.0355 23.9881L16.5355 25.988C16.5749 25.996 16.6156 26 16.6562 26C16.8085 26 16.9568 25.9467 17.0749 25.8467C17.2259 25.72 17.3125 25.5307 17.3125 25.3334V22.0002H25.8438C26.206 22.0002 26.5 21.7015 26.5 21.3335V10.6674C26.5 10.2994 26.206 10.0007 25.8438 10.0007ZM11.4062 20.6669C9.59762 20.6669 8.125 18.8723 8.125 16.6671C8.125 14.4619 9.59762 12.6673 11.4062 12.6673C13.2149 12.6673 14.6875 14.4619 14.6875 16.6671C14.6875 18.8723 13.2149 20.6669 11.4062 20.6669ZM17.3125 11.334H23.9314L19.8994 14.5192L17.3125 12.8486V11.334ZM25.1875 20.6669H17.3125V14.4285L19.5844 15.8965C19.6921 15.9658 19.8154 16.0004 19.9375 16.0004C20.0793 16.0004 20.2223 15.9538 20.3404 15.8605L25.1875 12.03V20.6669Z" fill="#006BBD"/>
<path d="M11 20C11.8284 20 12.5 18.6569 12.5 17C12.5 15.3431 11.8284 14 11 14C10.1716 14 9.5 15.3431 9.5 17C9.5 18.6569 10.1716 20 11 20Z" fill="#006BBD"/>
</svg>
