<svg width="32" height="32" viewBox="0 0 32 32" fill="none" xmlns="http://www.w3.org/2000/svg">
<path d="M16.0005 26C17.1005 26 18.0005 25.1 18.0005 24H14.0005C14.0005 25.1 14.8905 26 16.0005 26ZM22.0005 20V15C22.0005 11.93 20.3605 9.36 17.5005 8.68V8C17.5005 7.17 16.8305 6.5 16.0005 6.5C15.1705 6.5 14.5005 7.17 14.5005 8V8.68C11.6305 9.36 10.0005 11.92 10.0005 15V20L8.71054 21.29C8.08054 21.92 8.52054 23 9.41054 23H22.5805C23.4705 23 23.9205 21.92 23.2905 21.29L22.0005 20Z" fill="#9799A3"/>
</svg>
