<svg width="45" height="48" viewBox="0 0 45 48" fill="none" xmlns="http://www.w3.org/2000/svg">
<path opacity="0.1" d="M36.4444 15.8462C36.4444 15.7846 36.4444 15.7231 36.4444 15.7231C36.4444 13.6308 35.1407 11.8462 33.363 11.1077L24.5333 6.61538C23.8222 6.18462 23.0519 6 22.2222 6C21.3926 6 20.563 6.24615 19.9111 6.61538L11.0815 11.0462C9.3037 11.7231 8 13.5692 8 15.6615C8 15.7231 8 15.7846 8 15.7846V28.0923C8 28.1538 8 28.2154 8 28.2154C8 30.3077 9.3037 32.0923 11.0815 32.8308L19.9111 37.3846C20.6222 37.8154 21.3926 38 22.2222 38C23.0519 38 23.8815 37.7538 24.5333 37.3846L33.363 32.9538C35.1407 32.2769 36.4444 30.4308 36.4444 28.3385C36.4444 28.2769 36.4444 28.2154 36.4444 28.2154C36.4444 28.2154 36.4444 28.2154 36.4444 28.2154V15.8462Z" fill="#212127"/>
<path d="M36.4444 13.8462C36.4444 13.7846 36.4444 13.7231 36.4444 13.7231C36.4444 11.6308 35.1407 9.84615 33.363 9.10769L24.5333 4.61538C23.8222 4.18462 23.0519 4 22.2222 4C21.3926 4 20.563 4.24615 19.9111 4.61538L11.0815 9.04615C9.3037 9.72308 8 11.5692 8 13.6615C8 13.7231 8 13.7846 8 13.7846V26.0923C8 26.1538 8 26.2154 8 26.2154C8 28.3077 9.3037 30.0923 11.0815 30.8308L19.9111 35.3846C20.6222 35.8154 21.3926 36 22.2222 36C23.0519 36 23.8815 35.7538 24.5333 35.3846L33.363 30.9538C35.1407 30.2769 36.4444 28.4308 36.4444 26.3385C36.4444 26.2769 36.4444 26.2154 36.4444 26.2154C36.4444 26.2154 36.4444 26.2154 36.4444 26.2154V13.8462Z" fill="#212127"/>
<g opacity="0.1" filter="url(#filter0_dd)">
<path d="M36.4444 13.8462C36.4444 13.7846 36.4444 13.7231 36.4444 13.7231C36.4444 11.6308 35.1407 9.84615 33.363 9.10769L24.5333 4.61538C23.8222 4.18462 23.0519 4 22.2222 4C21.3926 4 20.563 4.24615 19.9111 4.61538L11.0815 9.04615C9.3037 9.72308 8 11.5692 8 13.6615C8 13.7231 8 13.7846 8 13.7846V26.0923C8 26.1538 8 26.2154 8 26.2154C8 28.3077 9.3037 30.0923 11.0815 30.8308L19.9111 35.3846C20.6222 35.8154 21.3926 36 22.2222 36C23.0519 36 23.8815 35.7538 24.5333 35.3846L33.363 30.9538C35.1407 30.2769 36.4444 28.4308 36.4444 26.3385C36.4444 26.2769 36.4444 26.2154 36.4444 26.2154C36.4444 26.2154 36.4444 26.2154 36.4444 26.2154V13.8462Z" fill="url(#paint0_linear)"/>
</g>
<path d="M26 20C26 22.2 24.2 24 22 24C19.8 24 18 22.2 18 20C18 17.8 19.8 16 22 16V18L27 14.95L22 12V14C18.7 14 16 16.7 16 20C16 23.3 18.7 26 22 26C25.3 26 28 23.3 28 20H26Z" fill="#FFDE2F"/>
<defs>
<filter id="filter0_dd" x="0" y="0" width="44.4444" height="48" filterUnits="userSpaceOnUse" color-interpolation-filters="sRGB">
<feFlood flood-opacity="0" result="BackgroundImageFix"/>
<feColorMatrix in="SourceAlpha" type="matrix" values="0 0 0 0 0 0 0 0 0 0 0 0 0 0 0 0 0 0 127 0"/>
<feOffset dy="2"/>
<feColorMatrix type="matrix" values="0 0 0 0 0 0 0 0 0 0 0 0 0 0 0 0 0 0 0.05 0"/>
<feBlend mode="normal" in2="BackgroundImageFix" result="effect1_dropShadow"/>
<feColorMatrix in="SourceAlpha" type="matrix" values="0 0 0 0 0 0 0 0 0 0 0 0 0 0 0 0 0 0 127 0"/>
<feOffset dy="4"/>
<feGaussianBlur stdDeviation="4"/>
<feColorMatrix type="matrix" values="0 0 0 0 0 0 0 0 0 0 0 0 0 0 0 0 0 0 0.06 0"/>
<feBlend mode="normal" in2="effect1_dropShadow" result="effect2_dropShadow"/>
<feBlend mode="normal" in="SourceGraphic" in2="effect2_dropShadow" result="shape"/>
</filter>
<linearGradient id="paint0_linear" x1="16" y1="6.96296" x2="29.037" y2="32.4444" gradientUnits="userSpaceOnUse">
<stop stop-color="white"/>
<stop offset="1" stop-color="white" stop-opacity="0"/>
</linearGradient>
</defs>
</svg>
