<svg width="13" height="13" viewBox="0 0 13 13" fill="none" xmlns="http://www.w3.org/2000/svg">
<path d="M8.224 9.984C9.344 9.984 10.288 9.54133 11.056 8.656L12.704 10.192C12.1707 10.8427 11.5093 11.3387 10.72 11.68C9.94133 12.0213 9.06667 12.192 8.096 12.192C7.168 12.192 6.304 12.0267 5.504 11.696C4.71467 11.3653 4.04267 10.896 3.488 10.288C2.93333 9.68 2.53333 8.976 2.288 8.176H0.48V6.832H2.048C2.03733 6.736 2.032 6.592 2.032 6.4C2.032 6.208 2.03733 6.064 2.048 5.968H0.48V4.624H2.288C2.53333 3.824 2.93333 3.12 3.488 2.512C4.04267 1.904 4.71467 1.43467 5.504 1.104C6.304 0.773333 7.168 0.608 8.096 0.608C9.06667 0.608 9.94133 0.778666 10.72 1.12C11.5093 1.46133 12.1707 1.952 12.704 2.592L11.056 4.128C10.2773 3.25333 9.33333 2.816 8.224 2.816C7.52 2.816 6.89067 2.976 6.336 3.296C5.78133 3.616 5.35467 4.05867 5.056 4.624H9.104V5.968H4.656C4.64533 6.064 4.64 6.208 4.64 6.4C4.64 6.592 4.64533 6.736 4.656 6.832H9.104V8.176H5.056C5.35467 8.74133 5.78133 9.184 6.336 9.504C6.89067 9.824 7.52 9.984 8.224 9.984Z" fill="#52B142"/>
</svg>
