<svg width="11" height="12" viewBox="0 0 11 12" fill="none" xmlns="http://www.w3.org/2000/svg">
<path d="M5.176 0.799999C6.168 0.799999 7.02667 0.965333 7.752 1.296C8.488 1.62667 9.05333 2.096 9.448 2.704C9.84267 3.312 10.04 4.032 10.04 4.864C10.04 5.68533 9.84267 6.40533 9.448 7.024C9.05333 7.632 8.488 8.10133 7.752 8.432C7.02667 8.752 6.168 8.912 5.176 8.912H2.92V12H0.328V0.799999H5.176ZM5.032 6.8C5.81067 6.8 6.40267 6.63467 6.808 6.304C7.21333 5.96267 7.416 5.48267 7.416 4.864C7.416 4.23467 7.21333 3.75467 6.808 3.424C6.40267 3.08267 5.81067 2.912 5.032 2.912H2.92V6.8H5.032Z" fill="#7365F4"/>
</svg>
