<svg width="24" height="24" viewBox="0 0 24 24" fill="none" xmlns="http://www.w3.org/2000/svg">
<mask id="path-1-inside-1" fill="white">
<path fill-rule="evenodd" clip-rule="evenodd" d="M3 8C3 6.89543 3.89543 6 5 6H19C20.1046 6 21 6.89543 21 8V10L3 10V8ZM3 12V19C3 20.1046 3.89543 21 5 21H11V12L3 12ZM13 12V21H19C20.1046 21 21 20.1046 21 19V12L13 12Z"/>
</mask>
<path fill-rule="evenodd" clip-rule="evenodd" d="M3 8C3 6.89543 3.89543 6 5 6H19C20.1046 6 21 6.89543 21 8V10L3 10V8ZM3 12V19C3 20.1046 3.89543 21 5 21H11V12L3 12ZM13 12V21H19C20.1046 21 21 20.1046 21 19V12L13 12Z" fill="#9799A3"/>
<path d="M21 10V12H23V10H21ZM3 10H1V12H3L3 10ZM3 12L3 10H1V12H3ZM11 21V23H13V21H11ZM11 12H13V10H11V12ZM13 12V10H11V12H13ZM13 21H11V23H13V21ZM21 12H23V10H21V12ZM5 4C2.79086 4 1 5.79086 1 8H5V8V4ZM19 4H5V8H19V4ZM23 8C23 5.79086 21.2091 4 19 4V8H23ZM23 10V8H19V10H23ZM3 12L21 12V8L3 8L3 12ZM1 8V10H5V8H1ZM1 12V19H5V12H1ZM1 19C1 21.2091 2.79086 23 5 23V19H5H1ZM5 23H11V19H5V23ZM13 21V12H9V21H13ZM11 10L3 10L3 14H11V10ZM11 12V21H15V12H11ZM13 23H19V19H13V23ZM19 23C21.2091 23 23 21.2091 23 19H19V23ZM23 19V12H19V19H23ZM21 10L13 10V14L21 14V10Z" fill="#9799A3" mask="url(#path-1-inside-1)"/>
<mask id="path-3-inside-2" fill="white">
<path fill-rule="evenodd" clip-rule="evenodd" d="M14 8C15.6569 8 17 6.65685 17 5C17 3.34315 15.6569 2 14 2C12.3431 2 11 3.34315 11 5V8H14Z"/>
</mask>
<path d="M11 8H9V10H11V8ZM15 5C15 5.55228 14.5523 6 14 6V10C16.7614 10 19 7.76142 19 5H15ZM14 4C14.5523 4 15 4.44772 15 5H19C19 2.23858 16.7614 0 14 0V4ZM13 5C13 4.44772 13.4477 4 14 4V0C11.2386 0 9 2.23858 9 5H13ZM13 8V5H9V8H13ZM14 6H11V10H14V6Z" fill="#9799A3" mask="url(#path-3-inside-2)"/>
<mask id="path-5-inside-3" fill="white">
<path fill-rule="evenodd" clip-rule="evenodd" d="M10 8C8.34315 8 7 6.65685 7 5C7 3.34315 8.34315 2 10 2C11.6569 2 13 3.34315 13 5V8H10Z"/>
</mask>
<path d="M13 8H15V10H13V8ZM9 5C9 5.55228 9.44772 6 10 6V10C7.23858 10 5 7.76142 5 5H9ZM10 4C9.44772 4 9 4.44772 9 5H5C5 2.23858 7.23858 0 10 0V4ZM11 5C11 4.44772 10.5523 4 10 4V0C12.7614 0 15 2.23858 15 5H11ZM11 8V5H15V8H11ZM10 6H13V10H10V6Z" fill="#9799A3" mask="url(#path-5-inside-3)"/>
</svg>
