<svg width="32" height="32" viewBox="0 0 32 32" fill="none" xmlns="http://www.w3.org/2000/svg">
<mask id="path-1-inside-1" fill="white">
<path fill-rule="evenodd" clip-rule="evenodd" d="M7 12C7 10.8954 7.89543 10 9 10H23C24.1046 10 25 10.8954 25 12V14L7 14V12ZM7 16V23C7 24.1046 7.89543 25 9 25H15V16L7 16ZM17 16V25H23C24.1046 25 25 24.1046 25 23V16L17 16Z"/>
</mask>
<path fill-rule="evenodd" clip-rule="evenodd" d="M7 12C7 10.8954 7.89543 10 9 10H23C24.1046 10 25 10.8954 25 12V14L7 14V12ZM7 16V23C7 24.1046 7.89543 25 9 25H15V16L7 16ZM17 16V25H23C24.1046 25 25 24.1046 25 23V16L17 16Z" fill="#9799A3"/>
<path d="M25 14V16H27V14H25ZM7 14H5V16H7L7 14ZM7 16L7 14H5V16H7ZM15 25V27H17V25H15ZM15 16H17V14H15V16ZM17 16V14H15V16H17ZM17 25H15V27H17V25ZM25 16H27V14H25V16ZM9 8C6.79086 8 5 9.79086 5 12H9V12V8ZM23 8H9V12H23V8ZM27 12C27 9.79086 25.2091 8 23 8V12H27ZM27 14V12H23V14H27ZM7 16L25 16V12L7 12L7 16ZM5 12V14H9V12H5ZM5 16V23H9V16H5ZM5 23C5 25.2091 6.79086 27 9 27V23H9H5ZM9 27H15V23H9V27ZM17 25V16H13V25H17ZM15 14L7 14L7 18H15V14ZM15 16V25H19V16H15ZM17 27H23V23H17V27ZM23 27C25.2091 27 27 25.2091 27 23H23V27ZM27 23V16H23V23H27ZM25 14L17 14V18L25 18V14Z" fill="#9799A3" mask="url(#path-1-inside-1)"/>
<mask id="path-3-inside-2" fill="white">
<path fill-rule="evenodd" clip-rule="evenodd" d="M18 12C19.6569 12 21 10.6569 21 9C21 7.34315 19.6569 6 18 6C16.3431 6 15 7.34315 15 9V12H18Z"/>
</mask>
<path d="M15 12H13V14H15V12ZM19 9C19 9.55228 18.5523 10 18 10V14C20.7614 14 23 11.7614 23 9H19ZM18 8C18.5523 8 19 8.44772 19 9H23C23 6.23858 20.7614 4 18 4V8ZM17 9C17 8.44772 17.4477 8 18 8V4C15.2386 4 13 6.23858 13 9H17ZM17 12V9H13V12H17ZM18 10H15V14H18V10Z" fill="#9799A3" mask="url(#path-3-inside-2)"/>
<mask id="path-5-inside-3" fill="white">
<path fill-rule="evenodd" clip-rule="evenodd" d="M14 12C12.3431 12 11 10.6569 11 9C11 7.34315 12.3431 6 14 6C15.6569 6 17 7.34315 17 9V12H14Z"/>
</mask>
<path d="M17 12H19V14H17V12ZM13 9C13 9.55228 13.4477 10 14 10V14C11.2386 14 9 11.7614 9 9H13ZM14 8C13.4477 8 13 8.44772 13 9H9C9 6.23858 11.2386 4 14 4V8ZM15 9C15 8.44772 14.5523 8 14 8V4C16.7614 4 19 6.23858 19 9H15ZM15 12V9H19V12H15ZM14 10H17V14H14V10Z" fill="#9799A3" mask="url(#path-5-inside-3)"/>
</svg>
