<svg width="32" height="32" viewBox="0 0 32 32" fill="none" xmlns="http://www.w3.org/2000/svg">
<path d="M16 6C10.48 6 6 10.48 6 16C6 21.52 10.48 26 16 26C21.52 26 26 21.52 26 16C26 10.48 21.52 6 16 6ZM23.46 13.12L20.68 14.27C20.17 12.91 19.1 11.83 17.73 11.33L18.88 8.55C20.98 9.35 22.65 11.02 23.46 13.12ZM16 19C14.34 19 13 17.66 13 16C13 14.34 14.34 13 16 13C17.66 13 19 14.34 19 16C19 17.66 17.66 19 16 19ZM13.13 8.54L14.3 11.32C12.92 11.82 11.83 12.91 11.32 14.29L8.54 13.13C9.35 11.02 11.02 9.35 13.13 8.54ZM8.54 18.87L11.32 17.72C11.83 19.1 12.91 20.18 14.29 20.68L13.12 23.46C11.02 22.65 9.35 20.98 8.54 18.87ZM18.88 23.46L17.73 20.68C19.1 20.17 20.18 19.09 20.68 17.71L23.46 18.88C22.65 20.98 20.98 22.65 18.88 23.46Z" fill="#9799A3"/>
</svg>
