<svg width="32" height="32" viewBox="0 0 32 32" fill="none" xmlns="http://www.w3.org/2000/svg">
<rect width="32" height="32" rx="16" fill="white"/>
<path d="M8.71047 12.1007L12.6105 16.0007L8.71047 19.9007C8.32047 20.2907 8.32047 20.9107 8.71047 21.3007C9.10047 21.6907 9.72047 21.6907 10.1105 21.3007L14.7005 16.7107C15.0905 16.3207 15.0905 15.6907 14.7005 15.3007L10.1105 10.7007C9.72047 10.3107 9.10047 10.3107 8.71047 10.7007C8.32047 11.0907 8.32047 11.7107 8.71047 12.1007ZM23.2905 12.1007L19.3905 16.0007L23.2905 19.9007C23.6805 20.2907 23.6805 20.9107 23.2905 21.3007C22.9005 21.6907 22.2805 21.6907 21.8905 21.3007L17.3005 16.7107C16.9105 16.3207 16.9105 15.6907 17.3005 15.3007L21.8905 10.7007C22.2805 10.3107 22.9005 10.3107 23.2905 10.7007C23.6805 11.0907 23.6805 11.7107 23.2905 12.1007Z" fill="#9799A3"/>
</svg>
