<svg width="208" height="83" viewBox="0 0 208 83" fill="none" xmlns="http://www.w3.org/2000/svg">
<path d="M29.0508 37.0488L29.0558 53.0398V53.0449L42.9056 45.0393L29.0508 37.0488Z" fill="#008AFF"/>
<path d="M29.0502 21.0488L15.1953 29.0544L15.2003 61.0415L29.0502 53.0359V21.0488Z" fill="#230EE6"/>
<path d="M29.058 53.0312L15.2031 61.0419L29.0529 69.0323H29.058V53.0312Z" fill="#1B51F5"/>
<path d="M29.0558 53.0352H29.0508L29.0558 69.0312L42.9056 61.0256L29.0558 53.0352Z" fill="#FF4378"/>
<path d="M42.9056 45.0343L42.9006 45.0293L29.0508 53.0349L42.9056 61.0304V45.0343Z" fill="#1B51F5"/>
<path d="M56.746 37.0293L42.9062 45.0298V61.0309L56.751 53.0304L56.746 37.0293Z" fill="#FF8585"/>
<path d="M42.9113 45.0352H42.9062V61.0312L56.751 53.0357L42.9113 45.0352Z" fill="#FF4378"/>
<path d="M29.0412 21.0488L15.1914 29.0494L42.9011 45.0404L56.7459 37.0348L29.0412 21.0488Z" fill="#FFE71D"/>
<path d="M29.0451 21.0645L15.1953 29.0499L29.0502 37.0504L29.0451 21.0645Z" fill="#FFD015"/>
<path d="M112.182 37.7614C110.992 37.1026 109.643 36.7732 108.136 36.7732C107.07 36.7732 106.101 36.9549 105.223 37.3241C104.345 37.6933 103.602 38.2442 103.002 38.9825V36.9493H99.5508V58.1112H103.177V50.5858C104.396 51.983 106.05 52.6815 108.136 52.6815C109.643 52.6815 110.992 52.3521 112.182 51.6933C113.372 51.0345 114.307 50.0974 114.981 48.8876C115.655 47.6779 115.995 46.2864 115.995 44.7189C115.995 43.1513 115.655 41.7655 114.981 40.5614C114.307 39.3517 113.372 38.4203 112.182 37.7614ZM111.02 48.2288C110.159 49.1205 109.059 49.5635 107.728 49.5635C106.855 49.5635 106.073 49.3647 105.376 48.9671C104.679 48.5696 104.129 48.0016 103.721 47.269C103.313 46.5306 103.109 45.6787 103.109 44.7132C103.109 43.742 103.313 42.89 103.721 42.1574C104.129 41.4191 104.679 40.8568 105.376 40.4592C106.073 40.0616 106.855 39.8629 107.728 39.8629C109.059 39.8629 110.159 40.3115 111.02 41.1975C111.881 42.0892 112.312 43.2592 112.312 44.7132C112.312 46.1671 111.881 47.3371 111.02 48.2288ZM117.707 52.4714H121.333V30.9062H117.707V52.4714ZM135.126 37.7785C133.936 37.1083 132.587 36.7732 131.08 36.7732C129.55 36.7732 128.178 37.114 126.96 37.7898C125.742 38.4657 124.79 39.4142 124.104 40.6239C123.419 41.8337 123.073 43.1967 123.073 44.7075C123.073 46.241 123.424 47.6097 124.133 48.8195C124.841 50.0292 125.838 50.9777 127.136 51.6536C128.433 52.3294 129.929 52.6702 131.629 52.6702C132.961 52.6702 134.162 52.4544 135.228 52.0284C136.293 51.6024 137.171 50.972 137.868 50.1371L135.925 47.8994C134.82 49.0239 133.42 49.5862 131.72 49.5862C130.388 49.5862 129.266 49.2511 128.371 48.5809C127.47 47.9107 126.915 47.0077 126.705 45.8604H138.86C138.9 45.3947 138.917 45.0369 138.917 44.787C138.917 43.1967 138.582 41.7996 137.914 40.5842C137.245 39.3858 136.316 38.4487 135.126 37.7785ZM126.671 43.4637C126.847 42.3221 127.334 41.402 128.139 40.7148C128.943 40.0276 129.924 39.6811 131.085 39.6811C132.264 39.6811 133.25 40.0276 134.043 40.7262C134.837 41.4247 135.307 42.3335 135.466 43.458H126.671V43.4637ZM152.199 38.8689C151.599 38.1704 150.873 37.6478 150.023 37.3014C149.173 36.9549 148.233 36.7789 147.207 36.7789C145.717 36.7789 144.379 37.1083 143.189 37.7671C141.999 38.4259 141.064 39.3574 140.39 40.5558C139.71 41.7598 139.376 43.1456 139.376 44.7132C139.376 46.2807 139.716 47.6722 140.39 48.882C141.064 50.0917 141.999 51.0288 143.189 51.6876C144.379 52.3465 145.717 52.6759 147.207 52.6759C148.272 52.6759 149.241 52.4941 150.12 52.125C150.998 51.7558 151.74 51.2049 152.341 50.4665V52.4714H155.82V30.9062H152.194V38.8689H152.199ZM151.65 47.269C151.242 48.0073 150.692 48.5753 149.995 48.9671C149.298 49.3647 148.516 49.5635 147.643 49.5635C146.771 49.5635 145.989 49.3647 145.292 48.9671C144.595 48.5696 144.045 48.0016 143.637 47.269C143.229 46.5306 143.025 45.6787 143.025 44.7132C143.025 43.742 143.229 42.89 143.637 42.1574C144.045 41.4191 144.595 40.8568 145.292 40.4592C145.989 40.0616 146.771 39.8629 147.643 39.8629C148.516 39.8629 149.298 40.0616 149.995 40.4592C150.692 40.8568 151.242 41.4247 151.65 42.1574C152.058 42.8957 152.256 43.7477 152.256 44.7132C152.256 45.6787 152.052 46.5306 151.65 47.269ZM170.066 37.7955C168.808 37.1196 167.386 36.7789 165.799 36.7789C164.235 36.7789 162.818 37.1196 161.566 37.7955C160.308 38.4714 159.328 39.4142 158.619 40.6126C157.911 41.8166 157.56 43.1797 157.56 44.7132C157.56 46.2466 157.911 47.6154 158.619 48.8252C159.328 50.0349 160.308 50.9834 161.566 51.6592C162.824 52.3351 164.235 52.6759 165.799 52.6759C167.386 52.6759 168.808 52.3351 170.066 51.6592C171.324 50.9834 172.304 50.0349 173.013 48.8252C173.721 47.6154 174.072 46.241 174.072 44.7132C174.072 43.1797 173.721 41.8166 173.013 40.6126C172.304 39.4142 171.324 38.4714 170.066 37.7955ZM169.108 48.2288C168.236 49.1205 167.136 49.5635 165.799 49.5635C164.467 49.5635 163.368 49.1205 162.507 48.2288C161.645 47.3371 161.215 46.1671 161.215 44.7132C161.215 43.2592 161.645 42.0892 162.507 41.1975C163.368 40.3059 164.467 39.8629 165.799 39.8629C167.131 39.8629 168.236 40.3115 169.108 41.1975C169.981 42.0892 170.412 43.2592 170.412 44.7132C170.412 46.1671 169.981 47.3371 169.108 48.2288ZM189.984 40.6126C189.276 39.4085 188.295 38.4714 187.037 37.7955C185.78 37.1196 184.357 36.7789 182.771 36.7789C181.207 36.7789 179.79 37.1196 178.538 37.7955C177.28 38.4714 176.299 39.4142 175.591 40.6126C174.883 41.8166 174.531 43.1797 174.531 44.7132C174.531 46.2466 174.883 47.6154 175.591 48.8252C176.299 50.0349 177.28 50.9834 178.538 51.6592C179.796 52.3351 181.207 52.6759 182.771 52.6759C184.357 52.6759 185.78 52.3351 187.037 51.6592C188.295 50.9834 189.276 50.0349 189.984 48.8252C190.692 47.6154 191.044 46.241 191.044 44.7132C191.044 43.1797 190.687 41.8166 189.984 40.6126ZM186.08 48.2288C185.207 49.1205 184.108 49.5635 182.771 49.5635C181.439 49.5635 180.34 49.1205 179.478 48.2288C178.617 47.3371 178.186 46.1671 178.186 44.7132C178.186 43.2592 178.617 42.0892 179.478 41.1975C180.34 40.3059 181.439 39.8629 182.771 39.8629C184.102 39.8629 185.207 40.3115 186.08 41.1975C186.952 42.0892 187.383 43.2592 187.383 44.7132C187.383 46.1671 186.952 47.3371 186.08 48.2288Z" fill="#4D4C52"/>
</svg>
