<svg width="42" height="48" viewBox="0 0 42 48" fill="none" xmlns="http://www.w3.org/2000/svg">
<path d="M13.8574 16.002L13.8625 31.993V31.998L27.7123 23.9924L13.8574 16.002Z" fill="#008AFF"/>
<path d="M13.8588 0L0.00390625 8.00558L0.00894353 39.9926L13.8588 31.9871V0Z" fill="#230EE6"/>
<path d="M13.8646 31.9824L0.00976562 39.993L13.8596 47.9835H13.8646V31.9824Z" fill="#1B51F5"/>
<path d="M13.8625 31.9883H13.8574L13.8625 47.9843L27.7123 39.9787L13.8625 31.9883Z" fill="#FF4378"/>
<path d="M27.7123 23.9875L27.7072 23.9824L13.8574 31.988L27.7123 39.9835V23.9875Z" fill="#1B51F5"/>
<path d="M41.5546 15.9824L27.7148 23.983V39.9841L41.5596 31.9835L41.5546 15.9824Z" fill="#FF8585"/>
<path d="M27.7199 23.9883H27.7148V39.9843L41.5596 31.9888L27.7199 23.9883Z" fill="#FF4378"/>
<path d="M13.8498 0L0 8.00054L27.7097 23.9916L41.5545 15.986L13.8498 0Z" fill="#FFE71D"/>
<path d="M13.8537 0.015625L0.00390625 8.00106L13.8588 16.0016L13.8537 0.015625Z" fill="#FFD015"/>
</svg>
